<?xml version="1.0" encoding="utf-8"?>
<!-- Generator: Adobe Illustrator 16.0.0, SVG Export Plug-In . SVG Version: 6.00 Build 0)  -->
<!DOCTYPE svg PUBLIC "-//W3C//DTD SVG 1.1//EN" "http://www.w3.org/Graphics/SVG/1.1/DTD/svg11.dtd">
<svg version="1.1" id="圖層_1" xmlns="http://www.w3.org/2000/svg" xmlns:xlink="http://www.w3.org/1999/xlink" x="0px" y="0px"
	 width="32px" height="32px" viewBox="0 0 32 32" enable-background="new 0 0 32 32" xml:space="preserve">
<g>
	<path d="M0,9.592l0.315-0.38v1.217C0.14,10.202,0.07,10.11,0,10.019V9.592z"/>
	<path fill="#FFFFFF" d="M31.069,15.888c-0.831,0.245-1.588,0.042-2.353-0.313c-0.651-0.303-1.334-0.576-2.031-0.731
		c-0.592-0.131-0.671,0.048-0.738,0.642c-0.115,1.017-0.188,2.056-0.463,3.034c-0.314,1.112-1.041,1.98-2.186,2.385
		c-0.383,0.135-0.389,0.331-0.307,0.686c0.259,1.119,0.533,2.24,0.669,3.377c0.103,0.854,0.014,0.925-0.855,1.068
		c-0.794,0.13-1.609,0.156-2.417,0.178c-0.381,0.01-0.525-0.204-0.54-0.649c-0.04-1.255-0.134-2.513-0.301-3.757
		c-0.103-0.758-0.216-0.77-1.069-0.648c0.295,1.455,0.59,2.906,0.895,4.416c-1.128,0.417-2.246,0.842-3.499,0.558
		c-0.366-0.083-0.565-0.27-0.599-0.636c-0.1-1.098-0.199-2.194-0.295-3.291c-0.016-0.176-0.018-0.352-0.029-0.577h-1.045
		c0.143,0.82,0.285,1.616,0.417,2.415c0.046,0.279,0.067,0.564,0.102,0.846c0.122,0.973,0.13,1.016-0.831,1.199
		c-0.562,0.107-1.169,0.133-1.73,0.041c-0.738-0.12-1.026-0.576-1.05-1.324c-0.033-0.994-0.068-1.987-0.113-2.98
		c-0.008-0.163-0.073-0.323-0.111-0.484l-0.149,0.012c0,0.377,0.007,0.752-0.001,1.129c-0.02,0.87-0.057,1.74-0.068,2.611
		c-0.003,0.303-0.14,0.443-0.416,0.521c-1.26,0.355-2.498,0.193-3.727-0.15c-0.405-0.112-0.562-0.444-0.515-0.829
		c0.084-0.704,0.205-1.403,0.328-2.101c0.056-0.314,0.153-0.62,0.232-0.93c0.264-1.036,0.208-2.008-0.364-2.968
		c-0.707-1.185-1.227-2.454-1.082-3.885c0.046-0.458,0.109-0.922,0.245-1.358c0.11-0.356,0.007-0.496-0.297-0.652
		c-1.04-0.534-1.906-1.258-2.288-2.412C1.922,8.623,2.716,6.8,4.501,5.775c-0.163,0.47-0.316,0.871-0.44,1.281
		c-0.438,1.446,0.502,3.021,1.993,3.339c0.127,0.027,0.281,0.007,0.404-0.04c0.146-0.056,0.296-0.141,0.405-0.251
		c1.693-1.725,3.908-2.313,6.154-2.831c1.175-0.271,2.338-0.662,3.528-0.78c3.82-0.382,6.117,0.651,7.971,3.769
		c0.433,0.728,0.787,1.502,1.188,2.278c1.052-0.261,2.038-0.528,2.641-1.629c0.685-1.251,1.993-1.437,2.887-0.549
		c0.549,0.545,0.628,1.184,0.198,1.824c-0.264,0.395-0.56,0.77-0.854,1.17c0.283,0.245,0.545,0.456,0.785,0.686
		c0.127,0.121,0.232,0.271,0.326,0.421c0.551,0.89,0.395,1.24-0.635,1.44c0.383-0.322,0.355-0.653,0.033-1.003
		c-0.361-0.391-0.713-0.791-1.084-1.203c0.235-0.311,0.458-0.609,0.684-0.905c0.226-0.294,0.454-0.586,0.678-0.875
		c-0.08-0.138-0.137-0.248-0.203-0.352c-0.721-1.122-1.647-1.126-2.389-0.01c-0.098,0.148-0.162,0.329-0.287,0.447
		c-0.328,0.309-0.641,0.674-1.032,0.869c-1.185,0.59-2.45,0.792-3.782,0.685c-0.629-0.051-1.274,0.041-1.907,0.112
		c-0.139,0.016-0.35,0.211-0.364,0.342c-0.03,0.286,0.043,0.583,0.074,0.88c1.02-0.093,1.973-0.21,2.93-0.261
		c1.799-0.095,3.584-0.157,5.193,0.936C29.982,15.829,30.572,15.789,31.069,15.888z M24.527,14.783
		c0.04,0.644,0.127,1.246,0.105,1.844c-0.063,1.659-1.227,2.598-2.863,2.338c-1.552-0.246-2.596-1.081-3.013-2.634
		c-0.44-1.64-0.403-3.279,0.073-4.897c0.138-0.463,0.401-0.915,0.697-1.302c0.713-0.931,1.746-1.072,2.671-0.348
		c0.38,0.298,0.69,0.716,0.948,1.131c0.279,0.449,0.447,0.966,0.689,1.44c0.07,0.137,0.221,0.305,0.352,0.322
		c0.34,0.046,0.69,0.016,1.116,0.016c-0.108-0.285-0.168-0.467-0.247-0.641c-0.578-1.277-1.377-2.409-2.35-3.409
		c-1.348-1.389-2.928-1.237-4.055,0.346c-0.785,1.103-1.148,2.358-1.329,3.673c-0.269,1.952-0.123,3.825,1.032,5.524
		c0.848,1.245,2.014,1.934,3.482,2.117c1.418,0.178,2.482-0.408,3.158-1.688c0.463-0.876,0.562-1.823,0.547-2.795
		C25.529,14.892,25.531,14.892,24.527,14.783z M22.861,25.908c0.164-0.307,0.346-0.498,0.305-0.605
		c-0.073-0.193-0.278-0.338-0.429-0.504c-0.099,0.148-0.288,0.307-0.272,0.439C22.487,25.426,22.664,25.594,22.861,25.908z"/>
	<path d="M1.49,9.815l0.364,1.718c-0.475-0.497-0.629-1.063-0.507-1.688C1.395,9.836,1.442,9.826,1.49,9.815z"/>
	<path d="M5.863,5.885C5.731,6.377,5.599,6.869,5.467,7.36C5.334,6.797,5.346,6.273,5.863,5.885z"/>
</g>
</svg>
