<?xml version="1.0" encoding="UTF-8"?>
<svg width="24px" height="24px" viewBox="0 0 24 24" version="1.1" xmlns="http://www.w3.org/2000/svg" xmlns:xlink="http://www.w3.org/1999/xlink">
    <!-- Generator: Sketch 51.3 (57544) - http://www.bohemiancoding.com/sketch -->
    <title>BTN-pixiv</title>
    <desc>Created with Sketch.</desc>
    <defs>
        <path d="M4,8.98445597 L5.02152769,10.5548767 C5.02152769,10.5548767 5.58671413,10.6007489 5.28737888,9.67573047 C5.54571592,9.2029234 6.05149231,8.56641469 7.03905257,7.83165097 L7.03905257,18.2933638 C6.61333913,18.4095337 6.05078924,18.6279586 6.43427408,19 L9.36883176,19 C9.75596381,18.6244692 9.14591224,18.3985125 8.77402818,18.2933638 L8.77402818,15.8252862 C8.77402818,15.8252862 10.7859724,16.590135 12.9549226,16.590135 C14.8606581,16.590135 16.5945791,16.0411154 17.8841991,15.0491184 C19.1739508,14.0625256 20.0048127,12.5901046 19.999979,10.9064076 C20.0035823,9.2536892 19.2734802,7.7368853 18.0158943,6.67718639 C16.7593629,5.61370026 14.9999114,5 12.9549226,5 C7.62511163,5 4,8.98445597 4,8.98445597 Z M8.77402818,14.8596296 L8.77402818,12.6118067 L8.77402818,7.01127048 C9.79186471,6.31059176 11.4426468,5.87914626 12.7758575,5.881742 C14.3953526,5.88293349 15.6672199,6.47565509 16.5269079,7.37526938 C17.3856732,8.28024535 17.8543183,9.48245446 17.8587125,10.8800672 C17.8533515,12.2416801 17.3524088,13.3629959 16.4604671,14.2233762 C15.5687011,15.0763949 14.2718747,15.6155848 12.7758575,15.614606 C12.7733968,15.614606 12.7706723,15.614606 12.7682116,15.614606 C12.7681237,15.614606 12.7680358,15.614606 12.7679479,15.614606 C11.1023133,15.614606 9.70046463,15.3016708 8.77402818,14.8596296 Z" id="path-1"></path>
    </defs>
    <g id="Welcome" stroke="none" stroke-width="1" fill="none" fill-rule="evenodd">
        <g id="UI-Homepage" transform="translate(-1277.000000, -24.000000)">
            <g id="Group-2-Copy" transform="translate(1277.000000, 24.000000)">
                <circle id="Oval-Copy-2" cx="12" cy="12" r="12"></circle>
                <mask id="mask-2" fill="white">
                    <use xlink:href="#path-1"></use>
                </mask>
                <g id="Clip-2"></g>
                <polygon id="Fill-1" fill="#FFFFFF" mask="url(#mask-2)" points="4 20 21 20 21 5 4 5"></polygon>
            </g>
        </g>
    </g>
</svg>