<?xml version="1.0" encoding="utf-8"?>
<!-- Generator: Adobe Illustrator 16.0.0, SVG Export Plug-In . SVG Version: 6.00 Build 0)  -->
<!DOCTYPE svg PUBLIC "-//W3C//DTD SVG 1.1//EN" "http://www.w3.org/Graphics/SVG/1.1/DTD/svg11.dtd">
<svg version="1.1" id="圖層_1" xmlns="http://www.w3.org/2000/svg" xmlns:xlink="http://www.w3.org/1999/xlink" x="0px" y="0px"
	 width="32px" height="32px" viewBox="0 0 32 32" enable-background="new 0 0 32 32" xml:space="preserve">
<path fill="#FFFFFF" d="M20.031,20.347c0.926,0,1.352-0.538,1.352-1.401c0-0.734-0.41-1.347-1.313-1.347
	c-0.773,0-1.216,0.538-1.216,1.354C18.854,19.678,19.281,20.347,20.031,20.347z M13.513,20.596c1.019,0,1.484-0.59,1.484-1.539
	c0-0.805-0.451-1.479-1.443-1.479c-0.849,0-1.336,0.594-1.336,1.487C12.219,19.861,12.688,20.596,13.513,20.596z M32,13.602
	l-4.2,0.039l1.106-12.915L2.611,4.807l2.248,8.331H0l4.979,15.318l11.617-1.711v4.527l13.484-6.188L32,13.602z M19.861,8.81
	c0-0.065,0.053-0.123,0.117-0.125l2.506-0.167l0.594-0.039c0.699-0.046,2.18,0.084,2.18,1.648c0,1.107-0.826,1.579-0.826,1.579
	s1,0.252,0.943,1.456c0,2.136-2.591,1.852-2.591,1.852l-0.3-0.008l-2.545-0.071c-0.064-0.002-0.115-0.055-0.114-0.12L19.861,8.81z
	 M14.961,9.133c0-0.063,0.052-0.12,0.117-0.123l4.085-0.271c0.059-0.005,0.11,0.038,0.115,0.097c0,0.003,0,0.006,0,0.01v1.257
	c0,0.065-0.051,0.12-0.115,0.123l-2.533,0.107c-0.064,0.004-0.115,0.056-0.117,0.12l-0.007,0.525
	c-0.001,0.062,0.048,0.111,0.108,0.112c0.002,0,0.004,0,0.006,0l2.195-0.088c0.061-0.003,0.111,0.043,0.114,0.104
	c0,0.003,0,0.005,0,0.008l-0.026,1.349c-0.002,0.064-0.055,0.115-0.119,0.115h-2.174c-0.064,0.001-0.116,0.053-0.117,0.117v0.555
	c0,0.063,0.052,0.118,0.117,0.118l2.494,0.044c0.064,0.002,0.115,0.055,0.115,0.12V14.8c0,0.062-0.049,0.112-0.111,0.112
	c-0.002,0-0.002,0-0.004,0l-4.084-0.164c-0.065-0.002-0.116-0.055-0.116-0.12L14.961,9.133z M6.948,9.549l1.3-0.085
	c0.066-0.004,0.126,0.042,0.14,0.107l0.61,2.94c0.014,0.063,0.036,0.063,0.052,0l0.768-3.042c0.021-0.064,0.077-0.111,0.144-0.12
	l1.228-0.081c0.067-0.003,0.127,0.04,0.146,0.104l0.752,3.123c0.016,0.063,0.039,0.063,0.055,0l0.8-3.232
	c0.02-0.065,0.076-0.114,0.144-0.123l1.328-0.085c0.064-0.005,0.103,0.042,0.087,0.104l-1.454,5.472
	c-0.019,0.064-0.078,0.109-0.145,0.109l-1.495-0.042c-0.068-0.003-0.126-0.049-0.146-0.115l-0.713-2.62
	c-0.016-0.063-0.044-0.063-0.06,0l-0.696,2.579c-0.021,0.064-0.08,0.107-0.147,0.109l-1.479-0.041
	c-0.067-0.006-0.125-0.052-0.144-0.118L6.86,9.669C6.845,9.606,6.885,9.552,6.948,9.549z M6.564,22.38v-4.748
	c0-0.063-0.052-0.116-0.116-0.117l-1.669-0.038c-0.065-0.004-0.118-0.055-0.122-0.121l-0.061-1.5
	c-0.003-0.06,0.043-0.112,0.104-0.115c0.002,0,0.005,0,0.007,0l5.396,0.128c0.064,0,0.116,0.055,0.113,0.118l-0.029,1.451
	c-0.003,0.063-0.055,0.114-0.119,0.117l-1.519,0.006c-0.063,0.002-0.115,0.053-0.116,0.117v4.596c0,0.065-0.052,0.12-0.116,0.123
	l-1.636,0.093c-0.059,0.006-0.111-0.036-0.117-0.095C6.564,22.389,6.564,22.385,6.564,22.38z M10.343,19.208
	c0-2.558,1.761-3.31,3.221-3.31s3.119,0.974,3.119,3.088c0,2.533-1.844,3.31-3.221,3.31C12.084,22.297,10.343,21.33,10.343,19.208z
	 M17.195,19.055c0-2.328,1.555-2.984,2.882-2.984c1.328,0,2.839,0.885,2.839,2.809c0,2.306-1.679,3.014-2.931,3.014
	S17.195,20.986,17.195,19.055z M26.873,21.336c-0.071,0.002-0.14-0.029-0.186-0.086l-1.582-2.174
	c-0.039-0.053-0.07-0.041-0.07,0.023v2.227c0,0.063-0.053,0.121-0.115,0.123l-1.402,0.082c-0.061,0.003-0.112-0.043-0.116-0.104
	c0-0.002,0-0.004,0-0.006l0.052-5.123c0-0.063,0.053-0.115,0.117-0.112l1.175,0.027c0.071,0.007,0.138,0.042,0.183,0.099
	l1.725,2.536c0.035,0.055,0.068,0.045,0.068-0.019l0.042-2.461c0.001-0.064,0.054-0.116,0.117-0.115c0.001,0,0.001,0,0.001,0
	l1.285,0.039c0.063,0,0.113,0.055,0.109,0.12l-0.184,4.74c-0.003,0.065-0.055,0.118-0.121,0.122L26.873,21.336z M21.678,10.973
	l0.965-0.019c0,0,0.627,0.024,0.627-0.579c0-0.476-0.549-0.44-0.549-0.44l-1.042,0.011c-0.064,0.001-0.116,0.053-0.117,0.117v0.797
	c-0.001,0.061,0.048,0.111,0.108,0.112C21.673,10.974,21.676,10.974,21.678,10.973z M21.639,13.588h1.32
	c0.031,0,0.467-0.068,0.467-0.539c0-0.391-0.306-0.536-0.588-0.531l-1.197,0.039c-0.065,0.001-0.117,0.055-0.117,0.12v0.795
	c0,0.063,0.051,0.115,0.113,0.116C21.638,13.588,21.639,13.588,21.639,13.588z"/>
</svg>
